<svg width="9" height="12" viewBox="0 0 9 12" fill="none" xmlns="http://www.w3.org/2000/svg">
<path d="M0.749633 0.281251C0.601371 0.281247 0.456437 0.31057 0.33316 0.36551C0.209883 0.42045 0.1138 0.498542 0.0570621 0.589907C0.000324043 0.681272 -0.0145206 0.781808 0.0144053 0.8788C0.0433312 0.975794 0.114729 1.06489 0.219568 1.13481L7.18555 5.78124L0.219568 10.4277C0.0789866 10.5214 8.33983e-06 10.6486 8.34131e-06 10.7812C8.34279e-06 10.9138 0.0789866 11.041 0.219568 11.1348C0.36015 11.2286 0.55082 11.2812 0.749633 11.2812C0.948445 11.2813 1.13911 11.2286 1.2797 11.1348L8.77575 6.13481C8.84536 6.08838 8.90058 6.03326 8.93825 5.97259C8.97592 5.91193 8.99531 5.84691 8.99531 5.78124C8.99531 5.71558 8.97592 5.65056 8.93825 5.5899C8.90058 5.52923 8.84536 5.47411 8.77575 5.42768L1.2797 0.427689C1.21016 0.381191 1.12754 0.344316 1.03657 0.319186C0.945607 0.294055 0.848092 0.281163 0.749633 0.281251Z" fill="#151D48"/>
</svg>
