<svg width="18" height="18" viewBox="0 0 18 18" fill="none" xmlns="http://www.w3.org/2000/svg">
<path d="M16.6082 8.78069C16.3893 8.78069 16.1793 8.86772 16.0244 9.02263C15.8696 9.17754 15.7826 9.38764 15.7826 9.60672V14.5629C15.7826 14.782 15.6956 14.9921 15.5408 15.147C15.386 15.3019 15.176 15.3889 14.957 15.3889H3.39867C3.17971 15.3889 2.96971 15.3019 2.81488 15.147C2.66005 14.9921 2.57307 14.782 2.57307 14.5629V2.9985C2.57307 2.77942 2.66005 2.56932 2.81488 2.41441C2.96971 2.2595 3.17971 2.17247 3.39867 2.17247H8.35225C8.57121 2.17247 8.78121 2.08544 8.93604 1.93053C9.09087 1.77562 9.17785 1.56552 9.17785 1.34644C9.17785 1.12737 9.09087 0.917263 8.93604 0.762352C8.78121 0.607442 8.57121 0.520415 8.35225 0.520415H3.39867C2.74178 0.520415 2.1118 0.781498 1.64731 1.24623C1.18282 1.71096 0.921875 2.34127 0.921875 2.9985V14.5629C0.921875 15.2201 1.18282 15.8504 1.64731 16.3152C2.1118 16.7799 2.74178 17.041 3.39867 17.041H14.957C15.6139 17.041 16.2439 16.7799 16.7084 16.3152C17.1729 15.8504 17.4338 15.2201 17.4338 14.5629V9.60672C17.4338 9.38764 17.3468 9.17754 17.192 9.02263C17.0372 8.86772 16.8272 8.78069 16.6082 8.78069ZM4.22426 9.40847V12.9108C4.22426 13.1299 4.31125 13.34 4.46608 13.4949C4.62091 13.6498 4.8309 13.7369 5.04986 13.7369H8.5504C8.65905 13.7375 8.76676 13.7166 8.86735 13.6755C8.96794 13.6344 9.05943 13.5739 9.13657 13.4973L14.8497 7.77294L17.1944 5.47658C17.2718 5.39979 17.3332 5.30843 17.3751 5.20777C17.417 5.10711 17.4386 4.99915 17.4386 4.8901C17.4386 4.78105 17.417 4.67309 17.3751 4.57243C17.3332 4.47177 17.2718 4.38041 17.1944 4.30362L13.6939 0.759963C13.6171 0.68254 13.5258 0.621089 13.4252 0.579152C13.3246 0.537216 13.2167 0.515625 13.1077 0.515625C12.9987 0.515625 12.8908 0.537216 12.7902 0.579152C12.6896 0.621089 12.5983 0.68254 12.5215 0.759963L10.1933 3.09762L4.46369 8.82199C4.38717 8.89917 4.32663 8.99071 4.28555 9.09135C4.24446 9.19199 4.22364 9.29976 4.22426 9.40847ZM13.1077 2.51114L15.4441 4.8488L14.2718 6.02176L11.9353 3.6841L13.1077 2.51114ZM5.87546 9.74714L10.7713 4.8488L13.1077 7.18646L8.2119 12.0848H5.87546V9.74714Z" fill="#21BA21"/>
</svg>
