<svg width="18" height="15" viewBox="0 0 18 15" fill="none" xmlns="http://www.w3.org/2000/svg">
<path d="M1.793 14.8983C1.30422 14.8983 0.885947 14.7243 0.538174 14.3764C0.1904 14.0284 0.0162175 13.6096 0.015625 13.12V2.45018C0.015625 1.96114 0.189808 1.54265 0.538174 1.1947C0.88654 0.846741 1.30482 0.672468 1.793 0.671875H16.012C16.5008 0.671875 16.9194 0.846149 17.2677 1.1947C17.6161 1.54324 17.79 1.96174 17.7894 2.45018V13.12C17.7894 13.609 17.6155 14.0278 17.2677 14.3764C16.92 14.7249 16.5014 14.8989 16.012 14.8983H1.793ZM8.90251 8.67424L1.793 4.22848V13.12H16.012V4.22848L8.90251 8.67424ZM8.90251 6.89593L16.012 2.45018H1.793L8.90251 6.89593ZM1.793 4.22848V2.45018V13.12V4.22848Z" fill="#1DCC49"/>
</svg>
