<svg width="15" height="16" viewBox="0 0 15 16" fill="none" xmlns="http://www.w3.org/2000/svg">
<g clip-path="url(#clip0_163_3464)">
<path d="M6.25 8.97654C6.51841 9.33537 6.86085 9.63228 7.25409 9.84713C7.64734 10.062 8.08219 10.1897 8.52916 10.2217C8.97612 10.2538 9.42474 10.1893 9.84459 10.0327C10.2644 9.87604 10.6457 9.63096 10.9625 9.31404L12.8375 7.43904C13.4067 6.84966 13.7217 6.06028 13.7146 5.24091C13.7075 4.42155 13.3788 3.63776 12.7994 3.05836C12.22 2.47896 11.4362 2.1503 10.6169 2.14318C9.79751 2.13606 9.00813 2.45105 8.41875 3.02029L7.34375 4.08904" stroke="black" stroke-width="1.25" stroke-linecap="round" stroke-linejoin="round"/>
<path d="M8.75379 7.72634C8.48538 7.36751 8.14294 7.0706 7.74969 6.85575C7.35645 6.6409 6.92159 6.51314 6.47463 6.48113C6.02767 6.44912 5.57905 6.51361 5.1592 6.67022C4.73935 6.82684 4.35809 7.07192 4.04129 7.38884L2.16629 9.26384C1.59704 9.85322 1.28206 10.6426 1.28918 11.462C1.2963 12.2813 1.62495 13.0651 2.20435 13.6445C2.78375 14.2239 3.56754 14.5526 4.38691 14.5597C5.20627 14.5668 5.99565 14.2518 6.58504 13.6826L7.65379 12.6138" stroke="black" stroke-width="1.25" stroke-linecap="round" stroke-linejoin="round"/>
</g>
<defs>
<clipPath id="clip0_163_3464">
<rect width="15" height="15" fill="white" transform="translate(0 0.851562)"/>
</clipPath>
</defs>
</svg>
