<svg width="13" height="16" viewBox="0 0 13 16" fill="none" xmlns="http://www.w3.org/2000/svg">
<path d="M6.19163 1.59971C4.93215 1.59971 3.72426 2.1003 2.83367 2.99135C1.94308 3.8824 1.44276 5.09092 1.44276 6.35106C1.44276 8.29368 2.65168 10.1677 3.97866 11.6196C4.65753 12.3589 5.39784 13.0392 6.19163 13.6532C6.9854 13.0396 7.72572 12.3598 8.4046 11.621C9.73157 10.1677 10.9405 8.29436 10.9405 6.35106C10.9405 5.09092 10.4402 3.8824 9.54959 2.99135C8.659 2.1003 7.45111 1.59971 6.19163 1.59971ZM6.19163 15.3202L5.80697 15.0555L5.80494 15.0542L5.80087 15.0508L5.7873 15.0413L5.73642 15.0053C5.45551 14.801 5.18085 14.5882 4.91283 14.3673C4.22585 13.8026 3.57911 13.1907 2.97732 12.536C1.59065 11.0182 0.0859375 8.81972 0.0859375 6.35106C0.0859375 4.73089 0.729214 3.17707 1.87425 2.03143C3.01929 0.885799 4.5723 0.242187 6.19163 0.242188C7.81096 0.242188 9.36397 0.885799 10.509 2.03143C11.654 3.17707 12.2973 4.73089 12.2973 6.35106C12.2973 8.81972 10.7926 11.0189 9.40594 12.536C8.62025 13.391 7.75827 14.1725 6.83069 14.8709C6.7534 14.9287 6.67538 14.9855 6.59664 15.0413L6.58239 15.0508L6.57832 15.0542L6.57697 15.0548L6.19163 15.3202ZM6.19163 4.99353C5.83178 4.99353 5.48667 5.13656 5.23221 5.39114C4.97776 5.64573 4.83481 5.99102 4.83481 6.35106C4.83481 6.7111 4.97776 7.05639 5.23221 7.31098C5.48667 7.56556 5.83178 7.70859 6.19163 7.70859C6.55148 7.70859 6.89659 7.56556 7.15105 7.31098C7.4055 7.05639 7.54845 6.7111 7.54845 6.35106C7.54845 5.99102 7.4055 5.64573 7.15105 5.39114C6.89659 5.13656 6.55148 4.99353 6.19163 4.99353ZM3.47799 6.35106C3.47799 5.63098 3.76389 4.9404 4.2728 4.43123C4.7817 3.92205 5.47193 3.63601 6.19163 3.636C6.91133 3.63601 7.60156 3.92205 8.11046 4.43123C8.61937 4.9404 8.90527 5.63098 8.90527 6.35106C8.90527 7.07114 8.61937 7.76172 8.11046 8.27089C7.60156 8.78006 6.91133 9.06611 6.19163 9.06611C5.47193 9.06611 4.7817 8.78006 4.2728 8.27089C3.76389 7.76172 3.47799 7.07114 3.47799 6.35106Z" fill="#2274DB"/>
</svg>
