<svg width="61" height="61" viewBox="0 0 61 61" fill="none" xmlns="http://www.w3.org/2000/svg">
<g filter="url(#filter0_d_1_4402)">
<rect x="6.90625" y="2.06445" width="48" height="48" rx="24" fill="white" shapeRendering="crispEdges"/>
<path fillRule="evenodd" clipRule="evenodd" d="M24.735 23.2319C24.735 19.8181 27.5086 17.0444 30.9225 17.0444C34.3271 17.0444 37.11 19.8272 37.11 23.2319V25.8811C37.11 26.0781 37.1545 26.3663 37.239 26.6744C37.3225 26.9787 37.4303 27.2491 37.5284 27.4208L38.5795 29.1666C39.4096 30.55 38.746 32.3523 37.2168 32.8585C33.1248 34.2254 28.7098 34.2253 24.6179 32.8582L24.6154 32.8573C23.8432 32.5959 23.2641 32.0556 23.0051 31.3563C22.7459 30.6562 22.8341 29.8682 23.2567 29.1658L24.3094 27.4174C24.3097 27.417 24.3099 27.4166 24.3101 27.4162C24.4105 27.2474 24.5205 26.978 24.6053 26.6723C24.6904 26.3657 24.735 26.0778 24.735 25.8811V23.2319ZM30.9225 18.4194C28.268 18.4194 26.11 20.5775 26.11 23.2319V25.8811C26.11 26.2435 26.0353 26.6615 25.9302 27.0401C25.8251 27.4189 25.6741 27.8135 25.4905 28.1215L25.4889 28.1241L24.4349 29.8747C24.4348 29.8748 24.4349 29.8747 24.4349 29.8747C24.2068 30.2539 24.194 30.6073 24.2946 30.8788C24.3953 31.151 24.6363 31.4124 25.055 31.5545C28.864 32.8268 32.9731 32.8266 36.7821 31.554L36.7842 31.5533C37.4724 31.3258 37.78 30.5073 37.4007 29.8745C37.4006 29.8743 37.4008 29.8746 37.4007 29.8745L36.3402 28.1131C36.1641 27.8078 36.0166 27.416 35.913 27.038C35.8095 26.6609 35.735 26.2433 35.735 25.8811V23.2319C35.735 20.5866 33.5678 18.4194 30.9225 18.4194Z" fill="#1A1818"/>
<path fillRule="evenodd" clipRule="evenodd" d="M28.5865 17.7469C28.9526 16.8126 29.8617 16.1553 30.9224 16.1553C31.9831 16.1553 32.8922 16.8126 33.2583 17.7469C33.3539 17.9908 33.3026 18.2678 33.126 18.4613C32.9494 18.6548 32.6781 18.731 32.4266 18.658C32.1723 18.5842 31.9156 18.5285 31.6555 18.4969L31.653 18.4966C30.8606 18.3976 30.1119 18.4564 29.4185 18.6579C29.1669 18.7311 28.8956 18.6549 28.7189 18.4614C28.5422 18.2679 28.4909 17.9909 28.5865 17.7469Z" fill="#1A1818"/>
<path fillRule="evenodd" clipRule="evenodd" d="M28.8594 32.5361C28.8594 33.0976 29.0929 33.6216 29.4647 33.9933C29.8364 34.3651 30.3604 34.5986 30.9219 34.5986C32.0547 34.5986 32.9844 33.6689 32.9844 32.5361H34.3594C34.3594 34.4283 32.8141 35.9736 30.9219 35.9736C29.98 35.9736 29.1107 35.5839 28.4924 34.9656C27.8741 34.3473 27.4844 33.478 27.4844 32.5361H28.8594Z" fill="#1A1818"/>
</g>

</svg>
