<svg width="165" height="27" viewBox="0 0 165 27" fill="none" xmlns="http://www.w3.org/2000/svg">
<rect x="126.713" y="0.855467" width="37.8726" height="25.4314" rx="3.20116" fill="#1F72CD" stroke="#D9D9D9" strokeWidth="0.582029"/>
<path fillRule="evenodd" clipRule="evenodd" d="M133.317 9.77734L129.719 17.632H134.026L134.56 16.3797H135.78L136.314 17.632H141.055V16.6762L141.478 17.632H143.93L144.353 16.656V17.632H154.213L155.412 16.4122L156.534 17.632L161.599 17.6421L157.989 13.7266L161.599 9.77734H156.613L155.446 10.9746L154.358 9.77734H143.632L142.711 11.8047L141.768 9.77734H137.47V10.7007L136.992 9.77734H133.317ZM148.041 10.8927H153.703L155.435 12.7381L157.222 10.8927H158.954L156.323 13.7255L158.954 16.5257H157.144L155.412 14.6588L153.615 16.5257H148.041V10.8927ZM149.439 13.0886V12.0597V12.0587H152.972L154.514 13.7042L152.904 15.3586H149.439V14.2354H152.528V13.0886H149.439ZM134.15 10.8927H136.25L138.636 16.219V10.8927H140.936L142.779 14.7117L144.478 10.8927H146.767V16.529H145.374L145.363 12.1124L143.333 16.529H142.087L140.046 12.1124V16.529H137.181L136.638 15.2654H133.704L133.162 16.5279H131.627L134.15 10.8927ZM134.205 14.0973L135.172 11.8463L136.137 14.0973H134.205Z" fill="white"/>
<rect x="1.17383" y="0.855467" width="37.1757" height="25.309" rx="3.20116" fill="white" stroke="#D9D9D9" strokeWidth="0.582029"/>
<path fillRule="evenodd" clipRule="evenodd" d="M12.3462 18.1039H10.0588L8.34351 11.5601C8.2621 11.2591 8.08923 10.993 7.83496 10.8675C7.20038 10.5523 6.50111 10.3015 5.73828 10.175V9.92305H9.42308C9.93163 9.92305 10.313 10.3015 10.3766 10.741L11.2666 15.4613L13.5529 9.92305H15.7767L12.3462 18.1039ZM17.0479 18.1039H14.8876L16.6664 9.92305H18.8267L17.0479 18.1039ZM21.622 12.1894C21.6855 11.7488 22.0669 11.4968 22.5119 11.4968C23.2112 11.4336 23.9729 11.5601 24.6086 11.8742L24.99 10.1128C24.3543 9.86089 23.6551 9.73438 23.0205 9.73438C20.9238 9.73438 19.3981 10.8675 19.3981 12.4402C19.3981 13.6367 20.4788 14.2649 21.2417 14.6433C22.0669 15.0207 22.3848 15.2726 22.3212 15.65C22.3212 16.216 21.6855 16.468 21.0509 16.468C20.2881 16.468 19.5253 16.2793 18.8271 15.9641L18.4457 17.7265C19.2085 18.0407 20.0338 18.1672 20.7967 18.1672C23.1476 18.2293 24.6086 17.0973 24.6086 15.398C24.6086 13.2582 21.622 13.1328 21.622 12.1894ZM32.1684 18.1039L30.4531 9.92305H28.6107C28.2293 9.92305 27.8479 10.175 27.7208 10.5523L24.5445 18.1039H26.7683L27.2122 16.9086H29.9446L30.1988 18.1039H32.1684ZM28.9286 12.1261L29.5631 15.2094H27.7843L28.9286 12.1261Z" fill="#172B85"/>
<rect x="43.0176" y="0.855467" width="37.1757" height="25.309" rx="3.20116" fill="white" stroke="#D9D9D9" strokeWidth="0.582029"/>
<path d="M63.2704 21.6005C67.475 21.6208 71.3128 18.1399 71.3128 13.9055C71.3128 9.27532 67.475 6.07444 63.2704 6.07617H59.6517C55.397 6.07444 51.8945 9.27618 51.8945 13.9055C51.8945 18.1408 55.397 21.6208 59.6517 21.6005H63.2704Z" fill="#0079BE"/>
<path d="M59.6688 6.71777C55.7805 6.71907 52.6302 9.8992 52.6289 13.8242C52.6302 17.7489 55.7805 20.929 59.6688 20.9303C63.5576 20.929 66.7092 17.7489 66.7096 13.8242C66.7092 9.8992 63.558 6.71907 59.6688 6.71777ZM55.2067 13.8242C55.2059 12.9167 55.4789 12.0301 55.99 11.2802C56.501 10.5303 57.2265 9.95201 58.0714 9.62094V18.0271C57.2264 17.6963 56.5009 17.1181 55.9898 16.3682C55.4787 15.6184 55.2057 14.7317 55.2067 13.8242ZM61.2658 18.0288V9.62051C62.1114 9.95111 62.8375 10.5293 63.3489 11.2795C63.8604 12.0296 64.1334 12.9168 64.1323 13.8247C64.1332 14.7326 63.8601 15.6196 63.3487 16.3697C62.8373 17.1198 62.1113 17.6981 61.2658 18.0288Z" fill="white"/>
<path d="M63.2704 21.6005C67.475 21.6208 71.3128 18.1399 71.3128 13.9055C71.3128 9.27532 67.475 6.07444 63.2704 6.07617H59.6517C55.397 6.07444 51.8945 9.27618 51.8945 13.9055C51.8945 18.1408 55.397 21.6208 59.6517 21.6005H63.2704Z" fill="#0079BE"/>
<path d="M59.6688 6.71777C55.7805 6.71907 52.6302 9.8992 52.6289 13.8242C52.6302 17.7489 55.7805 20.929 59.6688 20.9303C63.5576 20.929 66.7092 17.7489 66.7096 13.8242C66.7092 9.8992 63.558 6.71907 59.6688 6.71777ZM55.2067 13.8242C55.2059 12.9167 55.4789 12.0301 55.99 11.2802C56.501 10.5303 57.2265 9.95201 58.0714 9.62094V18.0271C57.2264 17.6963 56.5009 17.1181 55.9898 16.3682C55.4787 15.6184 55.2057 14.7317 55.2067 13.8242ZM61.2658 18.0288V9.62051C62.1114 9.95111 62.8375 10.5293 63.3489 11.2795C63.8604 12.0296 64.1334 12.9168 64.1323 13.8247C64.1332 14.7326 63.8601 15.6196 63.3487 16.3697C62.8373 17.1198 62.1113 17.6981 61.2658 18.0288Z" fill="white"/>
<rect x="84.8691" y="0.855467" width="37.1757" height="25.309" rx="3.20116" fill="white" stroke="#D9D9D9" strokeWidth="0.582029"/>
<path fillRule="evenodd" clipRule="evenodd" d="M103.726 19.0728C102.441 20.1821 100.773 20.8518 98.9513 20.8518C94.8857 20.8518 91.5898 17.5177 91.5898 13.4049C91.5898 9.29209 94.8857 5.95801 98.9513 5.95801C100.773 5.95801 102.441 6.62768 103.726 7.73701C105.012 6.62768 106.679 5.95801 108.501 5.95801C112.567 5.95801 115.863 9.29209 115.863 13.4049C115.863 17.5177 112.567 20.8518 108.501 20.8518C106.679 20.8518 105.012 20.1821 103.726 19.0728Z" fill="#ED0006"/>
<path fillRule="evenodd" clipRule="evenodd" d="M103.727 19.073C105.31 17.7071 106.313 15.6746 106.313 13.4049C106.313 11.1352 105.31 9.10266 103.727 7.73676C105.012 6.62759 106.679 5.95801 108.501 5.95801C112.567 5.95801 115.863 9.29209 115.863 13.4049C115.863 17.5177 112.567 20.8518 108.501 20.8518C106.679 20.8518 105.012 20.1822 103.727 19.073Z" fill="#F9A000"/>
<path fillRule="evenodd" clipRule="evenodd" d="M103.727 19.0731C105.31 17.7072 106.313 15.6747 106.313 13.4052C106.313 11.1356 105.31 9.1032 103.727 7.7373C102.144 9.1032 101.141 11.1356 101.141 13.4052C101.141 15.6747 102.144 17.7072 103.727 19.0731Z" fill="#FF5E00"/>
</svg>
