<svg width="14" height="15" viewBox="0 0 14 15" fill="none" xmlns="http://www.w3.org/2000/svg">
<path d="M13.0401 14.7062C11.4383 14.7062 9.85569 14.3569 8.29233 13.6584C6.72897 12.9599 5.30657 11.9694 4.02513 10.6867C2.74369 9.40463 1.7539 7.98149 1.05578 6.41732C0.357646 4.85314 0.00832508 3.26974 0.0078125 1.6671C0.0078125 1.43632 0.0846989 1.24401 0.238472 1.09015C0.392245 0.936301 0.584461 0.859375 0.815121 0.859375H3.92902C4.10843 0.859375 4.26861 0.920403 4.40956 1.04246C4.55052 1.16452 4.63382 1.30863 4.65945 1.47479L5.15921 4.16722C5.18484 4.37235 5.17843 4.54544 5.13999 4.68647C5.10154 4.8275 5.03106 4.9493 4.92855 5.05187L3.06405 6.93657C3.32034 7.41095 3.62455 7.86918 3.97669 8.31125C4.32883 8.75332 4.7166 9.17975 5.13999 9.59054C5.53723 9.98799 5.9537 10.3567 6.38939 10.6967C6.82508 11.0368 7.2864 11.3475 7.77335 11.6291L9.58018 9.82132C9.69551 9.70593 9.84621 9.61951 10.0323 9.56207C10.2183 9.50463 10.4008 9.48848 10.5797 9.51361L13.2323 10.0521C13.4117 10.1034 13.5591 10.1965 13.6744 10.3313C13.7897 10.4662 13.8474 10.6167 13.8474 10.7829V13.8984C13.8474 14.1292 13.7705 14.3215 13.6167 14.4754C13.4629 14.6292 13.2707 14.7062 13.0401 14.7062Z" fill="#DD6E1A"/>
</svg>
